<svg width="32" height="32" viewBox="0 0 32 32" fill="none" xmlns="http://www.w3.org/2000/svg">
    <path d="M2.34146 6.5C2.1523 6.5 2 6.65438 2 6.84615C2 7.06457 2.10082 7.27075 2.2732 7.40488L15.3859 17.6076C15.7471 17.8886 16.2529 17.8886 16.6141 17.6076L29.7268 7.40488C29.8992 7.27075 30 7.06457 30 6.84615C30 6.65438 29.8477 6.5 29.6585 6.5H2.34146ZM3.61406 11.1896C2.95723 10.6786 2 11.1467 2 11.9789V25.1538C2 25.3456 2.1523 25.5 2.34146 25.5H29.6585C29.8477 25.5 30 25.3456 30 25.1538V11.9789C30 11.1467 29.0428 10.6786 28.3859 11.1896L16.4162 20.5024C16.2968 20.5954 16.1505 20.6458 16 20.6458C15.8495 20.6458 15.7032 20.5954 15.5838 20.5024L3.61406 11.1896Z" fill="#DBDFE1"/>
</svg>
