<svg width="32" height="32" viewBox="0 0 32 32" fill="none" xmlns="http://www.w3.org/2000/svg">
    <path d="M26.2257 4H5.77287C4.79393 4 4 4.77012 4 5.71925V26.2812C4 27.2299 4.79393 28 5.77287 28H26.2257C27.2061 28 28 27.2294 28 26.2812V5.71925C28 4.76963 27.2056 4 26.2257 4ZM11.2745 24.091H7.64965V13.2539H11.2745V24.091ZM9.46234 11.7735H9.43806C8.22215 11.7735 7.43551 10.9412 7.43551 9.90132C7.43551 8.83831 8.24643 8.02911 9.48613 8.02911C10.7263 8.02911 11.4892 8.83831 11.5134 9.90132C11.5134 10.9412 10.7258 11.7735 9.46234 11.7735ZM24.346 24.091H20.7211V18.292C20.7211 16.8357 20.1967 15.8417 18.8851 15.8417C17.8838 15.8417 17.2875 16.512 17.0248 17.1595C16.9292 17.3906 16.9059 17.7139 16.9059 18.0382V24.0906H13.281C13.281 24.0906 13.3286 14.2692 13.281 13.2534H16.9059V14.7874C17.3876 14.0491 18.249 12.9977 20.1734 12.9977C22.5581 12.9977 24.3465 14.5471 24.3465 17.8761V24.091H24.346Z" fill="#DBDFE1"/>
</svg>
