<svg width="146" height="55" viewBox="0 0 146 55" fill="none" xmlns="http://www.w3.org/2000/svg">
    <path d="M42.983 12.1304L44.3021 41.6841H38.0861L37.6252 30.4096L22.9075 52.3602L16.519 31.7566L6.74119 55H0L17.3477 13.7608L24.9588 38.2323L42.983 12.1304Z" fill="#0B0D21"/>
    <path d="M29.0778 0C44.1059 0 56.2885 12.2058 56.2885 27.2625C56.2885 38.6552 49.3136 48.4157 39.4088 52.4914L39.4087 48.6386C47.3218 44.7926 52.7775 36.6659 52.7775 27.2625C52.7775 14.1486 42.1668 3.51774 29.0778 3.51774C15.9889 3.51774 5.37824 14.1486 5.37824 27.2625C5.37824 32.7426 7.23117 37.7891 10.3436 41.8074L7.94401 41.807L7.94359 44.4361C4.14414 39.7483 1.86719 33.7718 1.86719 27.2625C1.86719 12.2058 14.0498 0 29.0778 0Z" fill="#0B0D21"/>
    <path fill-rule="evenodd" clip-rule="evenodd" d="M39.7056 48.5215L38.0575 47.6945H34.4551V53.2083H38.0575L39.7056 52.3602V48.5215Z" fill="#0B0D21"/>
    <path d="M34.4551 48.5215H30.8711V49.8999H34.4551V48.5215Z" fill="#0B0D21"/>
    <path d="M34.4551 51.0028H30.8711V52.3813H34.4551V51.0028Z" fill="#0B0D21"/>
    <path d="M72.0858 22.3194L70.8937 19.6243L70.3495 22.3194L68.5873 31.2082H65.7107L69.6498 12.1608H69.9608L75.1956 22.449L76.7505 25.8957L78.3054 22.449L83.4365 12.1608H83.7216L87.8161 31.2082H84.9655L83.0478 22.3194L82.4777 19.6243L81.4411 22.3194L76.8282 31.2082H76.6727L72.0858 22.3194ZM95.2609 31.4674C94.1898 31.4674 93.2007 31.2126 92.2937 30.7029C91.3866 30.1932 90.661 29.4676 90.1168 28.526C89.5726 27.5845 89.3005 26.4831 89.3005 25.2219C89.3005 23.978 89.538 22.8895 90.0132 21.9566C90.4883 21.0237 91.1664 20.2981 92.0475 19.7798C92.9286 19.2615 93.9652 19.0023 95.1573 19.0023C95.8483 19.0023 96.4962 19.1232 97.1009 19.3651C97.7056 19.607 98.2152 19.905 98.6299 20.2592C99.0445 20.6134 99.3209 20.9632 99.4591 21.3087L99.511 19.3133H102.18V31.2082H99.5369L99.4851 29.1091C99.1914 29.7311 98.6558 30.2796 97.8783 30.7547C97.1009 31.2298 96.2284 31.4674 95.2609 31.4674ZM95.7274 29.135C96.7122 29.135 97.5414 28.7938 98.2152 28.1114C98.889 27.429 99.2259 26.5349 99.2259 25.4292V25.2478C99.2259 24.5049 99.0704 23.8398 98.7594 23.2524C98.4485 22.6649 98.0252 22.2071 97.4896 21.8789C96.954 21.5506 96.3666 21.3865 95.7274 21.3865C94.6217 21.3865 93.7665 21.745 93.1618 22.4619C92.5571 23.1789 92.2548 24.1075 92.2548 25.2478C92.2548 26.4053 92.5528 27.3426 93.1489 28.0596C93.7449 28.7766 94.6044 29.135 95.7274 29.135ZM105.26 19.3133H108.059V21.6456C108.335 20.8509 108.784 20.2117 109.406 19.7279C110.028 19.2442 110.736 19.0023 111.531 19.0023C112.084 19.0023 112.464 19.0541 112.671 19.1578L112.283 21.9825C112.127 21.8789 111.79 21.827 111.272 21.827C110.46 21.827 109.721 22.0862 109.056 22.6045C108.391 23.1228 108.059 23.952 108.059 25.0923V31.2082H105.26V19.3133ZM114.15 19.3133H117.338L119.903 24.6777L120.732 26.8286L121.562 24.6777L124.101 19.3133H127.211L120.966 31.2082H120.421L114.15 19.3133ZM134.312 31.4674C132.895 31.4674 131.712 31.1866 130.761 30.6251C129.811 30.0637 129.112 29.3121 128.662 28.3705C128.213 27.429 127.989 26.3967 127.989 25.2737C127.989 24.0125 128.252 22.9068 128.779 21.9566C129.306 21.0064 130.036 20.2765 130.969 19.7668C131.902 19.2571 132.956 19.0023 134.13 19.0023C135.962 19.0023 137.322 19.5076 138.212 20.5183C139.102 21.529 139.547 22.95 139.547 24.7813C139.547 25.2478 139.521 25.7315 139.469 26.2326H130.917C131.107 27.2864 131.483 28.0466 132.044 28.5131C132.606 28.9796 133.388 29.2128 134.39 29.2128C135.219 29.2128 135.901 29.1437 136.437 29.0055C136.972 28.8672 137.465 28.6772 137.914 28.4353L138.769 30.4308C138.337 30.7072 137.75 30.9491 137.007 31.1564C136.264 31.3637 135.366 31.4674 134.312 31.4674ZM136.826 24.2889C136.843 23.2178 136.61 22.4619 136.126 22.0214C135.642 21.5808 134.951 21.3606 134.053 21.3606C132.239 21.3606 131.193 22.3367 130.917 24.2889H136.826ZM142.708 12.1608H145.481V31.2082H142.708V12.1608ZM65.4336 36.9253H67.3441C67.8166 36.9253 68.172 37.0712 68.4106 37.363C68.6491 37.6548 68.7683 38.0091 68.7683 38.4259C68.7683 38.8428 68.6491 39.1959 68.4106 39.4854C68.172 39.7749 67.8166 39.9196 67.3441 39.9196H66.0867V41.712H65.4336V36.9253ZM67.3372 37.5297H66.0867V39.3152H67.3024C67.5757 39.3152 67.7807 39.2283 67.9173 39.0547C68.0539 38.881 68.1222 38.6714 68.1222 38.4259C68.1222 38.1804 68.0562 37.9697 67.9242 37.7937C67.7922 37.6177 67.5966 37.5297 67.3372 37.5297ZM69.9105 39.3291C69.9105 38.6436 70.1444 38.0623 70.6122 37.5853C71.08 37.1082 71.652 36.8697 72.3282 36.8697C73.0091 36.8697 73.5845 37.1082 74.0547 37.5853C74.5248 38.0623 74.7598 38.6436 74.7598 39.3291C74.7598 40.0099 74.5248 40.5889 74.0547 41.0659C73.5845 41.543 73.0091 41.7815 72.3282 41.7815C71.652 41.7815 71.08 41.543 70.6122 41.0659C70.1444 40.5889 69.9105 40.0099 69.9105 39.3291ZM71.0707 38.0299C70.728 38.3866 70.5566 38.8196 70.5566 39.3291C70.5566 39.8386 70.7268 40.2705 71.0673 40.6248C71.4077 40.9791 71.828 41.1562 72.3282 41.1562C72.8284 41.1562 73.2499 40.9791 73.5926 40.6248C73.9354 40.2705 74.1068 39.8386 74.1068 39.3291C74.1068 38.8196 73.9354 38.3866 73.5926 38.0299C73.2499 37.6733 72.8284 37.495 72.3282 37.495C71.8326 37.495 71.4135 37.6733 71.0707 38.0299ZM81.05 36.9253H81.7448L80.126 41.712H79.5633L78.7157 38.7247L77.875 41.712H77.3123L75.6936 36.9253H76.3883L77.5902 40.6699L78.4725 37.5714H78.9658L79.8481 40.6699L81.05 36.9253ZM83.0814 36.9253H85.916V37.5297H83.7276V39.0581H85.6381V39.6626H83.7276V41.1076H85.9855V41.712H83.0814V36.9253ZM89.594 39.8988L90.8723 41.712H90.0872L88.8506 39.9196H88.2392V41.712H87.5862V36.9253H89.4272C89.8996 36.9253 90.254 37.0712 90.4902 37.363C90.7264 37.6548 90.8445 38.0091 90.8445 38.4259C90.8445 38.815 90.7414 39.1485 90.5353 39.4263C90.3292 39.7042 90.0154 39.8617 89.594 39.8988ZM89.4064 37.5297H88.2392V39.3152H89.3786C89.6519 39.3152 89.8533 39.2295 89.983 39.0581C90.1127 38.8868 90.1775 38.676 90.1775 38.4259C90.1775 38.1804 90.1139 37.9697 89.9865 37.7937C89.8591 37.6177 89.6658 37.5297 89.4064 37.5297ZM98.5756 37.5019L98.1101 37.9327C97.7767 37.6362 97.3922 37.488 96.9569 37.488C96.4613 37.488 96.0421 37.6675 95.6994 38.0264C95.3566 38.3854 95.1853 38.8196 95.1853 39.3291C95.1853 39.8386 95.3566 40.2716 95.6994 40.6283C96.0421 40.9849 96.4613 41.1632 96.9569 41.1632C97.3922 41.1632 97.7512 41.0462 98.0337 40.8124C98.3162 40.5785 98.4668 40.2647 98.4853 39.871H97.1236V39.3082H99.2217C99.2217 40.128 99.0202 40.7452 98.6173 41.1597C98.2143 41.5743 97.6609 41.7815 96.9569 41.7815C96.2806 41.7815 95.7086 41.543 95.2409 41.0659C94.7731 40.5889 94.5392 40.0099 94.5392 39.3291C94.5392 38.6436 94.7731 38.0623 95.2409 37.5853C95.7086 37.1082 96.2806 36.8697 96.9569 36.8697C97.5821 36.8697 98.1217 37.0804 98.5756 37.5019ZM102.691 39.8988L103.97 41.712H103.185L101.948 39.9196H101.337V41.712H100.683V36.9253H102.525C102.997 36.9253 103.351 37.0712 103.587 37.363C103.824 37.6548 103.942 38.0091 103.942 38.4259C103.942 38.815 103.839 39.1485 103.633 39.4263C103.427 39.7042 103.113 39.8617 102.691 39.8988ZM102.504 37.5297H101.337V39.3152H102.476C102.749 39.3152 102.951 39.2295 103.08 39.0581C103.21 38.8868 103.275 38.676 103.275 38.4259C103.275 38.1804 103.211 37.9697 103.084 37.7937C102.956 37.6177 102.763 37.5297 102.504 37.5297ZM105.251 39.3291C105.251 38.6436 105.485 38.0623 105.952 37.5853C106.42 37.1082 106.992 36.8697 107.668 36.8697C108.349 36.8697 108.925 37.1082 109.395 37.5853C109.865 38.0623 110.1 38.6436 110.1 39.3291C110.1 40.0099 109.865 40.5889 109.395 41.0659C108.925 41.543 108.349 41.7815 107.668 41.7815C106.992 41.7815 106.42 41.543 105.952 41.0659C105.485 40.5889 105.251 40.0099 105.251 39.3291ZM106.411 38.0299C106.068 38.3866 105.897 38.8196 105.897 39.3291C105.897 39.8386 106.067 40.2705 106.407 40.6248C106.748 40.9791 107.168 41.1562 107.668 41.1562C108.169 41.1562 108.59 40.9791 108.933 40.6248C109.276 40.2705 109.447 39.8386 109.447 39.3291C109.447 38.8196 109.276 38.3866 108.933 38.0299C108.59 37.6733 108.169 37.495 107.668 37.495C107.173 37.495 106.754 37.6733 106.411 38.0299ZM112.597 40.8506C112.81 41.0544 113.069 41.1562 113.375 41.1562C113.681 41.1562 113.94 41.0544 114.153 40.8506C114.366 40.6468 114.473 40.3851 114.473 40.0655V36.9253H115.126V40.0655C115.126 40.575 114.956 40.9884 114.615 41.3056C114.275 41.6229 113.861 41.7815 113.375 41.7815C112.889 41.7815 112.475 41.6229 112.135 41.3056C111.794 40.9884 111.624 40.575 111.624 40.0655V36.9253H112.277V40.0655C112.277 40.3851 112.384 40.6468 112.597 40.8506ZM118.873 36.9253C119.346 36.9253 119.701 37.0712 119.94 37.363C120.178 37.6548 120.297 38.0091 120.297 38.4259C120.297 38.8428 120.178 39.1959 119.94 39.4854C119.701 39.7749 119.346 39.9196 118.873 39.9196H117.616V41.712H116.963V36.9253H118.873ZM118.866 37.5297H117.616V39.3152H118.832C119.105 39.3152 119.31 39.2283 119.446 39.0547C119.583 38.881 119.651 38.6714 119.651 38.4259C119.651 38.1804 119.585 37.9697 119.453 37.7937C119.321 37.6177 119.126 37.5297 118.866 37.5297Z" fill="#0B0D21"/>
</svg>
