<svg width="72" height="72" viewBox="0 0 72 72" fill="none" xmlns="http://www.w3.org/2000/svg">
    <rect width="72" height="72" rx="36" fill="#fff"/>
    <path d="M59.6774 27.1H53.4847C53.0567 27.1 52.7097 26.753 52.7097 26.325C52.7097 25.0431 51.6676 24 50.3871 24C50.1121 24 49.8492 24.0495 49.6054 24.1392C49.1243 24.3163 48.5533 24.3159 48.0722 24.139C47.8283 24.0494 47.5654 24 47.2903 24C47.0153 24 46.7524 24.0495 46.5086 24.1392C46.0276 24.3163 45.4565 24.3159 44.9754 24.139C44.7316 24.0494 44.4686 24 44.1935 24C43.9185 24 43.6557 24.0495 43.4119 24.1392C42.9308 24.3163 42.3597 24.3159 41.8786 24.139C41.6348 24.0494 41.3719 24 41.0968 24C39.8163 24 38.7742 25.0431 38.7742 26.325C38.7742 26.753 38.4272 27.1 37.9992 27.1H14.7742C14.3468 27.1 14 27.4472 14 27.875V30.975C14 31.4028 14.3468 31.75 14.7742 31.75C15.2018 31.75 15.5484 32.0966 15.5484 32.5242V49.575C15.5484 50.0028 15.8952 50.35 16.3226 50.35H19.1935C19.7458 50.35 20.1935 50.7977 20.1935 51.35V54.225C20.1935 54.6528 20.5404 55 20.9677 55H34.9032C35.3306 55 35.6774 54.6528 35.6774 54.225V35.625C35.6774 35.1972 35.3306 34.85 34.9032 34.85H32.0323C31.48 34.85 31.0323 34.4023 31.0323 33.85V32.75C31.0323 32.1977 31.48 31.75 32.0323 31.75H37.9992C38.4272 31.75 38.7742 32.097 38.7742 32.525V36.0016C38.7742 36.9231 39.0444 37.8151 39.5546 38.5808L39.8023 38.9529C40.143 39.4643 40.3226 40.0588 40.3226 40.6733V44.1508C40.3226 44.5784 39.976 44.925 39.5484 44.925C39.1208 44.925 38.7742 45.272 38.7742 45.6996C38.7742 46.1276 39.1212 46.475 39.5492 46.475H50.3863C50.8143 46.475 51.1613 46.1276 51.1613 45.6996C51.1613 45.272 50.8147 44.925 50.3871 44.925C49.9595 44.925 49.6129 44.5784 49.6129 44.1508V40.275C49.6129 39.848 49.9605 39.5 50.3871 39.5C51.6676 39.5 52.7097 38.4569 52.7097 37.175V34.075V32.75C52.7097 32.1977 53.1574 31.75 53.7097 31.75H59.6774C60.9579 31.75 62 30.7069 62 29.425C62 28.1431 60.9579 27.1 59.6774 27.1ZM50.3871 25.55C50.8137 25.55 51.1613 25.898 51.1613 26.325V31.1015C51.1613 31.487 50.7727 31.75 50.3871 31.75C49.9595 31.75 49.6129 31.4034 49.6129 30.9758V26.325C49.6129 25.898 49.9605 25.55 50.3871 25.55ZM47.2903 25.55C47.7169 25.55 48.0645 25.898 48.0645 26.325V30.9758C48.0645 31.4034 47.7179 31.75 47.2903 31.75C46.8627 31.75 46.5161 31.4034 46.5161 30.9758V26.325C46.5161 25.898 46.8637 25.55 47.2903 25.55ZM44.1935 25.55C44.6201 25.55 44.9677 25.898 44.9677 26.325V31.2825C44.9677 31.6483 44.7273 31.9621 44.4264 32.1703C44.2645 32.2824 44.1176 32.4145 43.9893 32.5632C43.7918 32.7922 43.4194 32.8274 43.4194 32.525V26.325C43.4194 25.898 43.767 25.55 44.1935 25.55ZM33.129 36.4C33.6813 36.4 34.129 36.8477 34.129 37.4V52.45C34.129 53.0023 33.6813 53.45 33.129 53.45H22.7419C22.1897 53.45 21.7419 53.0023 21.7419 52.45V51.35C21.7419 50.7977 22.1897 50.35 22.7419 50.35H30.2581C30.6854 50.35 31.0323 50.0028 31.0323 49.575V37.4C31.0323 36.8477 31.48 36.4 32.0323 36.4H33.129ZM29.4839 47.8C29.4839 48.3523 29.0362 48.8 28.4839 48.8H18.0968C17.5445 48.8 17.0968 48.3523 17.0968 47.8V32.75C17.0968 32.1977 17.5445 31.75 18.0968 31.75H28.4839C29.0362 31.75 29.4839 32.1977 29.4839 32.75V47.8ZM30.2581 30.2H16.3226C15.895 30.2 15.5484 29.853 15.5484 29.4254C15.5484 28.9974 15.8954 28.65 16.3234 28.65H37.9992C38.4272 28.65 38.7742 28.997 38.7742 29.425C38.7742 29.853 38.4272 30.2 37.9992 30.2H30.2581ZM40.3226 26.325C40.3226 25.898 40.6702 25.55 41.0968 25.55C41.5234 25.55 41.871 25.898 41.871 26.325V32.525C41.871 32.952 41.5234 33.3 41.0968 33.3C40.6702 33.3 40.3226 32.952 40.3226 32.525V26.325ZM42.871 44.925C42.3187 44.925 41.871 44.4773 41.871 43.925V42.825C41.871 42.2727 42.3187 41.825 42.871 41.825H47.0645C47.6168 41.825 48.0645 42.2727 48.0645 42.825V43.925C48.0645 44.4773 47.6168 44.925 47.0645 44.925H42.871ZM50.3871 37.95C49.452 37.95 48.6441 38.5062 48.2763 39.3055C48.0453 39.8072 47.6168 40.275 47.0645 40.275H42.7596C42.2404 40.275 41.8192 39.8726 41.6778 39.373C41.5501 38.9217 41.3547 38.4905 41.0906 38.0942L40.8428 37.7221C40.5022 37.2106 40.3226 36.6162 40.3226 36.0016V35.498C40.3226 35.1128 40.7116 34.85 41.0968 34.85C41.4645 34.85 41.8105 34.7615 42.1182 34.6067C42.4435 34.4431 42.8447 34.441 43.1716 34.6012C43.3851 34.7058 43.5629 34.8819 43.6674 35.0954C44.0441 35.8657 44.828 36.4 45.7419 36.4H50.3871C50.7727 36.4 51.1613 36.663 51.1613 37.0485V37.175C51.1613 37.602 50.8137 37.95 50.3871 37.95ZM50.3871 34.85H45.7419C45.3154 34.85 44.9677 34.502 44.9677 34.075C44.9677 33.648 45.3154 33.3 45.7419 33.3H50.3871C50.8137 33.3 51.1613 33.648 51.1613 34.075C51.1613 34.502 50.8137 34.85 50.3871 34.85ZM59.6774 30.2H53.4847C53.0567 30.2 52.7097 29.853 52.7097 29.425C52.7097 28.997 53.0567 28.65 53.4847 28.65H59.6774C60.104 28.65 60.4516 28.998 60.4516 29.425C60.4516 29.852 60.104 30.2 59.6774 30.2Z" fill="#0B0D21" stroke="#0B0D21" stroke-width="0.5"/>
</svg>
