<svg width="72" height="72" viewBox="0 0 72 72" fill="none" xmlns="http://www.w3.org/2000/svg">
    <rect width="72" height="72" rx="36" fill="#fff"/>
    <path fill-rule="evenodd" clip-rule="evenodd" d="M34.4106 32.0211L34.4104 32.0212C33.7689 33.0094 33.3147 34.0539 33.0356 35.1385C33.2607 34.7764 33.4833 34.4129 33.7037 34.0476C34.5063 32.7169 36.1811 31.8563 37.8652 32.5438C38.6714 32.873 39.3277 33.5322 39.6354 34.4029C39.9407 35.2671 39.8367 36.1332 39.5517 36.8436C39.1874 37.7515 38.7919 38.6366 38.3698 39.503C39.9649 38.3262 41.0672 36.5941 41.7049 34.3597C42.4428 31.7714 42.4704 29.187 42.2041 26.3599C38.8711 27.5579 36.2633 29.1668 34.4106 32.0211ZM36.6347 37.3148C36.8116 36.9216 36.9821 36.5248 37.1459 36.124C37.1746 36.0536 37.2032 35.9832 37.2315 35.9126C37.6585 34.8483 36.4367 34.3569 35.8444 35.3389C35.8416 35.3435 35.8388 35.3481 35.836 35.3527C35.6055 35.7348 35.3725 36.1151 35.1366 36.4939C34.4123 37.6577 33.6612 38.8081 32.8721 39.9567C32.864 39.9687 32.8558 39.9806 32.8476 39.9925C32.7701 40.1052 32.6922 40.2178 32.614 40.3305C32.4856 40.5154 32.3562 40.7003 32.2257 40.8852C32.2037 40.9164 32.1817 40.9476 32.1596 40.9788C32.1421 41.0035 32.1246 41.0283 32.107 41.053C31.959 41.2618 31.7587 41.3878 31.5485 41.4378C31.0867 41.5476 30.5775 41.2906 30.4723 40.7382C30.4119 40.421 30.3612 40.1036 30.3203 39.7863C30.3026 39.6488 30.2868 39.5114 30.2728 39.374C30.2711 39.3572 30.2694 39.3404 30.2678 39.3236C29.9721 36.3144 30.5795 33.3309 32.3136 30.6599C34.954 26.5921 38.8302 24.7239 43.2266 23.3924C43.8069 23.2166 44.4025 23.6072 44.4787 24.2088C44.9408 27.858 45.147 31.4046 44.1091 35.0451C43.0303 38.8259 40.7175 41.6929 37.0105 43.0169C36.8086 43.089 36.6305 43.2178 36.5084 43.394C34.6143 46.1262 33.6855 48.4531 33.6288 50.2762C33.5184 53.6761 36.3936 54.3613 39.3197 54.2888C49.2787 54.0392 57.2746 45.9472 57.2746 36.0009C57.2746 25.8973 49.0214 17.7062 38.8426 17.7062C28.925 17.7062 20.8365 25.4812 20.4277 35.2265C20.4098 35.6534 20.7579 36.0009 21.1853 36.0009H21.4988C21.753 36.0009 21.959 36.2069 21.959 36.4611C21.959 36.7153 22.1651 36.9214 22.4193 36.9214H22.613C22.7986 36.9214 22.9755 37.0002 23.0995 37.1383L25.8377 40.1868C26.0026 40.3703 26.0938 40.6083 26.0938 40.855V47.9116C26.0938 48.4639 25.646 48.9116 25.0938 48.9116H24.7168C24.1645 48.9116 23.7168 49.3594 23.7168 49.9116V52.3817C23.7168 52.934 23.2691 53.3817 22.7168 53.3817H21.9904C21.4381 53.3817 20.9904 52.934 20.9904 52.3817V49.9116C20.9904 49.3594 20.5427 48.9116 19.9904 48.9116H18.1043C17.552 48.9116 17.1043 49.3594 17.1043 49.9116V52.3807C17.1043 52.933 16.6566 53.3807 16.1043 53.3807H15.377C14.8247 53.3807 14.377 52.933 14.377 52.3807V49.9107C14.377 49.3584 13.9292 48.9107 13.377 48.9107H13C12.4477 48.9107 12 48.463 12 47.9107V40.8542C12 40.6074 12.0913 40.3694 12.2562 40.1858L14.9954 37.138C15.1193 37.0001 15.296 36.9214 15.4813 36.9214H15.6745C15.9287 36.9214 16.1347 36.7153 16.1347 36.4611C16.1347 36.2069 16.3408 36.0009 16.595 36.0009H16.9094C17.3373 36.0009 17.6827 35.6526 17.6983 35.225C18.1095 23.9858 27.4182 15 38.8416 15C50.5267 15 60 24.4032 60 36.0009C60 47.4623 50.7494 56.7788 39.2582 56.9979C34.705 57.0722 30.7526 55.1598 30.911 50.1923C30.9729 48.2249 31.7555 45.9037 33.3254 43.3136C33.5176 42.9966 33.7215 42.6756 33.9374 42.3507C33.984 42.2805 34.0313 42.21 34.079 42.1394C35.0268 40.572 35.8877 38.9753 36.6347 37.3148ZM17.9738 38.3257C17.5733 38.8189 17.0175 39.1807 16.3807 39.3366L14.5 41.4292V46.5948C14.9654 46.7523 15.3868 47.0051 15.7412 47.3299C16.3638 46.7596 17.1934 46.4116 18.1043 46.4116H19.9904C20.9013 46.4116 21.7309 46.7596 22.3536 47.3299C22.7077 47.0056 23.1288 46.7531 23.5938 46.5957V41.4298L21.7138 39.3368C21.0741 39.1804 20.516 38.8161 20.1151 38.3197C19.723 38.1832 19.3612 37.9739 19.0495 37.706C18.7387 37.9753 18.3757 38.1883 17.9738 38.3257Z" fill="#0B0D21"/>
</svg>
