<svg width="72" height="72" viewBox="0 0 72 72" fill="none" xmlns="http://www.w3.org/2000/svg">
    <rect width="72" height="72" rx="36" fill="#fff"/>
    <path d="M50.4203 26.887C50.1574 26.8979 49.8985 26.8209 49.6845 26.6682C49.4704 26.5156 49.3136 26.2961 49.2389 26.0446C48.3897 23.2671 46.6685 20.8352 44.3288 19.1071C41.9891 17.3791 39.1546 16.4464 36.2432 16.4464C33.3318 16.4464 30.4974 17.3791 28.1577 19.1071C26.2407 20.523 24.7388 22.4114 23.7917 24.5752C23.6744 24.8433 23.8245 25.1491 24.1051 25.2324L24.937 25.4793C25.3065 25.5889 25.4182 26.0578 25.1378 26.3223L21.2649 29.976C20.9853 30.2399 20.5248 30.1024 20.4355 29.7285L19.201 24.559C19.1116 24.1848 19.4607 23.8541 19.8296 23.9636L20.8548 24.2678C21.1073 24.3427 21.3738 24.2086 21.4724 23.9643C22.5621 21.2657 24.3774 18.9072 26.7308 17.1564C29.4855 15.1071 32.8302 14 36.2669 14C39.7035 14 43.0482 15.1071 45.8029 17.1564C48.5576 19.2057 50.5749 22.0876 51.5545 25.3729C51.5989 25.5215 51.6135 25.6773 51.5975 25.8315C51.5814 25.9857 51.535 26.1352 51.461 26.2715C51.3869 26.4078 51.2866 26.5281 51.1658 26.6257C51.045 26.7232 50.9061 26.796 50.757 26.8399C50.6479 26.8729 50.5343 26.8888 50.4203 26.887Z" fill="#0B0D21"/>
    <path fill-rule="evenodd" clip-rule="evenodd" d="M32.6692 37.1145C33.239 37.6829 33.9307 38.1017 34.683 38.3458C34.9028 38.4171 35.0621 38.6156 35.0621 38.8467V39.966C35.0621 40.2785 35.1866 40.5782 35.4082 40.7992C35.6297 41.0202 35.9302 41.1443 36.2436 41.1443C36.5569 41.1443 36.8574 41.0202 37.079 40.7992C37.3005 40.5782 37.425 40.2785 37.425 39.966V38.8486C37.425 38.6172 37.5846 38.4186 37.8048 38.3475C38.561 38.1033 39.2563 37.683 39.8288 37.112C40.7799 36.1634 41.3142 34.877 41.3142 33.5356C41.3142 32.1941 40.7799 30.9077 39.8288 29.9591C39.2563 29.3882 38.561 28.9678 37.8048 28.7236C37.5846 28.6525 37.425 28.4539 37.425 28.2225V24.177C37.425 23.8075 37.8116 23.5764 38.0819 23.8282C38.2311 23.9673 38.3647 24.1235 38.4797 24.2944C38.7764 24.7355 38.9354 25.2543 38.9365 25.7854C38.9365 26.0979 39.061 26.3976 39.2826 26.6185C39.5041 26.8395 39.8046 26.9637 40.118 26.9637C40.4313 26.9637 40.7318 26.8395 40.9534 26.6185C41.1749 26.3976 41.2994 26.0979 41.2994 25.7854C41.2994 24.7865 41.0023 23.8101 40.4458 22.9797C39.8893 22.1493 39.0983 21.5021 38.1729 21.1202C38.0514 21.07 37.9284 21.0247 37.804 20.9844C37.5842 20.913 37.425 20.7145 37.425 20.4835V19.346C37.425 19.0335 37.3005 18.7338 37.079 18.5128C36.8574 18.2918 36.5569 18.1677 36.2436 18.1677C35.9302 18.1677 35.6297 18.2918 35.4082 18.5128C35.1866 18.7338 35.0621 19.0335 35.0621 19.346V20.4793C35.0621 20.7108 34.9022 20.9096 34.6818 20.9805C33.9201 21.2258 33.2248 21.6486 32.6553 22.2173C31.9475 22.924 31.4658 23.8242 31.2712 24.804C31.0765 25.7838 31.1776 26.7991 31.5617 27.7216C31.9457 28.6441 32.5955 29.4322 33.4288 29.9863C33.8187 30.2456 34.2406 30.4481 34.6818 30.5902C34.9022 30.6612 35.0621 30.8599 35.0621 31.0915V35.1364C35.0621 35.5057 34.6758 35.7369 34.4054 35.4853C34.2605 35.3506 34.1303 35.1996 34.0175 35.0347C33.718 34.5968 33.5551 34.0803 33.5493 33.5503C33.5493 33.2378 33.4248 32.9381 33.2032 32.7171C32.9817 32.4961 32.6812 32.372 32.3678 32.372C32.0545 32.372 31.754 32.4961 31.5324 32.7171C31.3109 32.9381 31.1864 33.2378 31.1864 33.5503C31.188 34.8873 31.7212 36.1691 32.6692 37.1145ZM38.1578 35.4101C38.1329 35.4351 38.1076 35.4597 38.0819 35.4837C37.8116 35.7356 37.425 35.5044 37.425 35.135V31.4659C37.425 31.3001 37.5982 31.1933 37.7363 31.2851C38.1786 31.579 38.5238 31.9969 38.7286 32.4861C38.9333 32.9752 38.9883 33.5139 38.8867 34.0342C38.7852 34.5545 38.5316 35.0332 38.1578 35.4101ZM34.747 28.0254C34.8868 28.1185 35.0621 28.0104 35.0621 27.8425V24.1758C35.0621 23.8065 34.6758 23.5753 34.4054 23.8269C34.3819 23.8487 34.3588 23.871 34.3361 23.8937C33.96 24.2696 33.704 24.7483 33.6006 25.2693C33.4971 25.7903 33.5508 26.3301 33.7549 26.8207C33.9589 27.3112 34.3042 27.7305 34.747 28.0254Z" fill="#0B0D21"/>
    <path d="M30.3349 49.3334H42.1491C42.4624 49.3334 42.7629 49.2092 42.9845 48.9883C43.2061 48.7673 43.3305 48.4676 43.3305 48.1551V47.9018C43.3442 46.3957 43.6733 44.9091 44.2969 43.5374C44.9205 42.1657 45.8247 40.9392 46.9516 39.9365C47.0046 39.8892 47.0531 39.8373 47.0965 39.7815C47.1169 39.7554 47.1386 39.7302 47.1627 39.7075C48.562 38.3911 49.7102 36.837 50.5556 35.1212C50.6716 34.8857 50.9461 34.7716 51.192 34.8637L52.1898 35.2378C52.55 35.3728 52.9214 35.0674 52.8586 34.6879L51.9894 29.4421C51.9265 29.0628 51.477 28.8934 51.1794 29.1369L47.0563 32.5111C46.758 32.7552 46.8365 33.2309 47.1975 33.3662L48.0353 33.6803C48.3084 33.7827 48.437 34.0966 48.303 34.3557C47.5928 35.7291 46.6532 36.9758 45.5215 38.0409C45.502 38.0592 45.4809 38.0757 45.4592 38.0914C45.4257 38.1156 45.3935 38.1415 45.3626 38.1691C42.9496 40.329 41.4181 43.292 41.0481 46.4939C41.0182 46.7528 40.8023 46.9532 40.5417 46.9532H31.9424C31.6817 46.9532 31.4658 46.7528 31.4359 46.4939C31.07 43.3276 29.5683 40.3948 27.2015 38.2414C27.1852 38.2247 27.1684 38.2085 27.151 38.1928C25.3086 36.5313 23.9581 34.3979 23.2464 32.0244C23.1563 31.7213 22.9492 31.4663 22.6706 31.3155C22.392 31.1647 22.0647 31.1304 21.7608 31.2203C21.4568 31.3101 21.2011 31.5167 21.0499 31.7946C20.8987 32.0724 20.8644 32.3988 20.9544 32.702C21.7828 35.4493 23.3382 37.9224 25.456 39.8618C25.4803 39.8878 25.5058 39.9127 25.5324 39.9365C26.6593 40.9392 27.5635 42.1657 28.1871 43.5374C28.8107 44.9091 29.1399 46.3957 29.1535 47.9018V48.1551C29.1535 48.4676 29.2779 48.7673 29.4995 48.9883C29.7211 49.2092 30.0216 49.3334 30.3349 49.3334Z" fill="#0B0D21"/>
    <path d="M30.335 53.0156H42.1493C42.4626 53.0156 42.7631 52.8914 42.9846 52.6705C43.2062 52.4495 43.3307 52.1498 43.3307 51.8373C43.3307 51.5248 43.2062 51.2251 42.9846 51.0041C42.7631 50.7831 42.4626 50.659 42.1493 50.659H30.335C30.0217 50.659 29.7212 50.7831 29.4996 51.0041C29.2781 51.2251 29.1536 51.5248 29.1536 51.8373C29.1536 52.1498 29.2781 52.4495 29.4996 52.6705C29.7212 52.8914 30.0217 53.0156 30.335 53.0156Z" fill="#0B0D21"/>
    <path d="M41.411 56.8568H31.0736C30.7603 56.8568 30.4598 56.7327 30.2382 56.5117C30.0166 56.2907 29.8922 55.991 29.8922 55.6785C29.8922 55.366 30.0166 55.0663 30.2382 54.8453C30.4598 54.6244 30.7603 54.5002 31.0736 54.5002H41.411C41.7244 54.5002 42.0249 54.6244 42.2464 54.8453C42.468 55.0663 42.5925 55.366 42.5925 55.6785C42.5925 55.991 42.468 56.2907 42.2464 56.5117C42.0249 56.7327 41.7244 56.8568 41.411 56.8568Z" fill="#0B0D21"/>
    <path d="M34.1969 61.4384C34.8185 61.8 35.524 61.9936 36.2436 62C36.9692 61.9998 37.682 61.8091 38.3103 61.4472C38.9387 61.0852 39.4605 60.5647 39.8233 59.938C39.9157 59.8042 39.9794 59.6528 40.0104 59.4933C40.0414 59.3338 40.0389 59.1696 40.0032 59.011C39.9675 58.8525 39.8993 58.703 39.8029 58.5721C39.7065 58.4411 39.584 58.3314 39.4431 58.2499C39.3021 58.1684 39.1458 58.1169 38.9839 58.0985C38.822 58.0802 38.6581 58.0954 38.5024 58.1433C38.3467 58.1912 38.2027 58.2707 38.0793 58.3767C37.9558 58.4828 37.8558 58.6132 37.7853 58.7597C37.6284 59.0234 37.4054 59.2419 37.1382 59.3937C36.871 59.5454 36.5688 59.6252 36.2613 59.6252C35.9538 59.6252 35.6516 59.5454 35.3844 59.3937C35.1172 59.2419 34.8942 59.0234 34.7372 58.7597C34.6668 58.6132 34.5667 58.4828 34.4433 58.3767C34.3199 58.2707 34.1758 58.1912 34.0201 58.1433C33.8644 58.0954 33.7005 58.0802 33.5386 58.0985C33.3768 58.1169 33.2204 58.1684 33.0795 58.2499C32.9385 58.3314 32.816 58.4411 32.7196 58.5721C32.6232 58.703 32.555 58.8525 32.5193 59.011C32.4836 59.1696 32.4812 59.3338 32.5121 59.4933C32.5431 59.6528 32.6068 59.8042 32.6993 59.938C33.0591 60.5596 33.5753 61.0768 34.1969 61.4384Z" fill="#0B0D21"/>
</svg>
