<svg width="72" height="72" viewBox="0 0 72 72" fill="none" xmlns="http://www.w3.org/2000/svg">
    <rect width="72" height="72" rx="36" fill="#fff"/>
    <path d="M36.4285 34.6389H35.0372C34.5533 34.6389 34.1298 34.4574 33.8274 34.0945C33.5249 33.7315 33.3435 33.2476 33.4039 32.8242C33.4644 31.9773 34.2508 31.3119 35.1582 31.3119H36.7915C37.3359 31.3119 37.7593 31.6748 37.8803 32.2192C37.9408 32.4612 38.1223 32.5822 38.3642 32.5822H40.179C40.3 32.5822 40.4814 32.5217 40.5419 32.4007C40.6629 32.2797 40.6629 32.1587 40.6629 32.0378C40.4814 30.1625 38.9692 28.7107 37.0939 28.5293V26.8355C37.0939 26.533 36.852 26.3516 36.61 26.3516H34.7952C34.4928 26.3516 34.3113 26.5935 34.3113 26.8355V28.5293C31.9521 28.8922 30.3189 31.0094 30.5608 33.4291C30.8028 35.7277 32.8595 37.482 35.2187 37.482H36.4285C36.9124 37.482 37.3359 37.6635 37.6383 38.0264C37.9408 38.3894 38.1223 38.8733 38.0618 39.2967C38.0013 40.1436 37.2149 40.809 36.3075 40.809H34.6743C34.1298 40.809 33.7064 40.4461 33.5854 39.9017C33.5249 39.6597 33.3435 39.5387 33.1015 39.5387H31.2867C31.1658 39.5387 30.9843 39.5992 30.9238 39.7202C30.8028 39.8412 30.8028 39.9621 30.8028 40.0831C30.9843 41.9584 32.4966 43.4102 34.3718 43.5916V45.2854C34.3718 45.5879 34.6138 45.7693 34.8557 45.7693H36.6705C36.9729 45.7693 37.1544 45.5274 37.1544 45.2854V43.5311C39.2111 43.1077 40.7234 41.5349 40.9049 39.5387C41.0259 38.2684 40.6024 36.9981 39.7555 36.0907C38.9087 35.1228 37.6988 34.6389 36.4285 34.6389Z" fill="#0B0D21" stroke="#F9F9F9" stroke-width="0.5"/>
    <path d="M64.0737 44.741L59.4764 40.1437C58.8715 39.5388 57.9641 39.5388 57.3592 40.1437C56.7542 40.7486 56.7542 41.656 57.3592 42.2609L59.3554 44.2571H49.3743C50.8261 41.8374 51.673 38.9943 51.673 35.9698C51.673 27.138 44.535 20 35.7032 20C31.2873 20 27.2949 21.8147 24.3913 24.7183H12.172L14.1682 22.7221C14.7732 22.1172 14.7732 21.2098 14.1682 20.6049C13.5633 20 12.656 20 12.051 20.6049L7.45369 25.2023C6.84877 25.8072 6.84877 26.7146 7.45369 27.3195L12.051 31.9168C12.3535 32.2193 12.7164 32.3403 13.1399 32.3403C13.5633 32.3403 13.9263 32.2193 14.2287 31.9168C14.8336 31.3119 14.8336 30.4045 14.2287 29.7996L12.172 27.7429H22.1531C20.7013 30.1626 19.8544 33.0057 19.8544 36.0302C19.8544 44.862 26.9924 52 35.8242 52C40.2401 52 44.2325 50.1853 47.1361 47.2817H59.3554L57.3592 49.2779C56.7542 49.8828 56.7542 50.7902 57.3592 51.3951C57.6616 51.6975 58.0246 51.8185 58.448 51.8185C58.8715 51.8185 59.2344 51.6975 59.5369 51.3951L64.1342 46.7977C64.6181 46.2533 64.6181 45.2854 64.0737 44.741ZM35.7637 48.9754C28.6257 48.9754 22.8185 43.1682 22.8185 36.0302C22.8185 28.8922 28.6257 23.0851 35.7637 23.0851C42.9017 23.0851 48.7089 28.8922 48.7089 36.0302C48.7089 43.1682 42.9017 48.9754 35.7637 48.9754Z" fill="#0B0D21" stroke="#F9F9F9" stroke-width="0.5"/>
</svg>
