<svg width="72" height="72" viewBox="0 0 72 72" fill="none" xmlns="http://www.w3.org/2000/svg">
    <rect width="72" height="72" rx="36" fill="#ffffff"/>
    <path d="M29.8828 19.4482C29.8828 22.575 32.3789 26.0766 35.7221 26.0766C39.0653 26.0766 41.5614 22.575 41.5614 19.4482C41.5614 16.3213 39.054 14 35.7221 14C32.3902 14 29.8828 16.3381 29.8828 19.4482ZM35.7221 15.6781C38.1222 15.6781 39.8672 17.2611 39.8672 19.4482C39.8672 21.6353 38.0205 24.3985 35.7221 24.3985C33.4237 24.3985 31.577 21.6856 31.577 19.4482C31.577 17.2107 33.3446 15.6781 35.7447 15.6781H35.7221Z" fill="#0B0D21" stroke="#0B0D21" stroke-width="0.5"/>
    <path d="M45.3007 34.0416C45.2979 34.0751 45.2979 34.1088 45.3007 34.1423L46.3398 42.6837C46.3646 42.8865 46.4631 43.0733 46.617 43.2092C46.7708 43.3452 46.9695 43.4209 47.1756 43.4221H47.2829C47.505 43.3955 47.7075 43.2829 47.8461 43.1089C47.9847 42.9349 48.0482 42.7137 48.0227 42.4936L46.9949 33.9913C47.0407 32.2019 46.4267 30.4572 45.2678 29.0838C44.1088 27.7103 42.4843 26.8022 40.6982 26.5294C39.0804 26.3163 37.451 26.2005 35.819 26.1826C34.1407 26.2115 32.465 26.3254 30.7985 26.5238C27.156 27.0161 24.5075 30.1541 24.4905 33.9969L23.5305 42.4936C23.5183 42.6037 23.5281 42.7152 23.5593 42.8217C23.5906 42.9281 23.6427 43.0274 23.7127 43.1139C23.7827 43.2004 23.8692 43.2723 23.9673 43.3257C24.0654 43.3791 24.1732 43.4128 24.2844 43.4249C24.3957 43.437 24.5082 43.4273 24.6157 43.3963C24.7231 43.3654 24.8234 43.3138 24.9107 43.2444C24.998 43.1751 25.0707 43.0894 25.1245 42.9922C25.1784 42.8951 25.2124 42.7883 25.2247 42.6782L26.1678 34.1311C26.1678 34.1311 26.1678 34.0752 26.1678 34.0416C26.1678 30.9819 28.1556 28.5711 31.0131 28.1907C32.6026 27.9988 34.201 27.8887 35.802 27.8607C37.3487 27.882 38.8929 27.9904 40.4271 28.1851C41.8216 28.4029 43.0873 29.1189 43.9852 30.1979C44.8831 31.2769 45.3511 32.6442 45.3007 34.0416Z" fill="#0B0D21" stroke="#0B0D21" stroke-width="0.5"/>
    <path d="M41.178 49.4626L45.2553 45.5471C45.3689 45.4376 45.4491 45.2986 45.4869 45.1462C45.5246 44.9937 45.5185 44.8338 45.469 44.6846C45.4196 44.5354 45.3289 44.403 45.2073 44.3023C45.0857 44.2016 44.938 44.1368 44.781 44.1152L39.1337 43.3041L36.615 38.2698C36.545 38.1295 36.4368 38.0113 36.3026 37.9287C36.1684 37.846 36.0135 37.8022 35.8555 37.8022C35.6974 37.8022 35.5425 37.846 35.4083 37.9287C35.2741 38.0113 35.1659 38.1295 35.0959 38.2698L32.5772 43.3041L26.9299 44.1152C26.7796 44.1448 26.6402 44.2142 26.5266 44.3161C26.413 44.418 26.3294 44.5485 26.2847 44.6938C26.2401 44.839 26.2361 44.9935 26.2732 45.1409C26.3102 45.2882 26.3869 45.4228 26.4951 45.5303L30.5668 49.4459L29.6067 55.0003C29.5799 55.1548 29.5973 55.3137 29.657 55.4589C29.7167 55.6041 29.8163 55.7299 29.9445 55.8219C30.0726 55.9139 30.2243 55.9685 30.3822 55.9795C30.5401 55.9905 30.6979 55.9574 30.8379 55.8841L35.8696 53.2607L40.9069 55.8841C41.0285 55.9482 41.1645 55.9809 41.3022 55.9792C41.4805 55.9804 41.6545 55.9256 41.7992 55.8226C41.9262 55.7293 42.025 55.6034 42.0847 55.4584C42.1445 55.3134 42.1629 55.1549 42.138 55.0003L41.178 49.4626ZM39.433 49.3116L40.1784 53.6243L36.2705 51.5882C36.1483 51.5259 36.0127 51.4934 35.8752 51.4934C35.7377 51.4934 35.6022 51.5259 35.4799 51.5882L31.572 53.6243L32.3174 49.3116C32.341 49.1774 32.3312 49.0395 32.2889 48.9099C32.2465 48.7803 32.173 48.6628 32.0746 48.5677L28.9121 45.5136L33.2718 44.8871C33.4078 44.8676 33.5369 44.8157 33.6481 44.7358C33.7592 44.6559 33.8491 44.5504 33.91 44.4284L35.8639 40.5129L37.8235 44.4284C37.8835 44.55 37.9724 44.6552 38.0826 44.7351C38.1928 44.8151 38.3209 44.8672 38.456 44.8871L42.8327 45.5136L39.6645 48.5677C39.5639 48.6617 39.4877 48.7785 39.4425 48.9081C39.3973 49.0376 39.3843 49.176 39.4048 49.3116H39.433Z" fill="#0B0D21" stroke="#0B0D21" stroke-width="0.5"/>
    <path d="M59.1196 46.6494L55.0028 46.0397L53.1618 42.348C53.0918 42.2076 52.9836 42.0894 52.8494 42.0068C52.7151 41.9242 52.5602 41.8804 52.4022 41.8804C52.2442 41.8804 52.0893 41.9242 51.9551 42.0068C51.8208 42.0894 51.7126 42.2076 51.6426 42.348L49.8016 46.0397L45.6961 46.6494C45.5395 46.672 45.3925 46.7374 45.2716 46.8384C45.1507 46.9395 45.0608 47.072 45.012 47.221C44.9632 47.37 44.9575 47.5296 44.9956 47.6817C45.0337 47.8337 45.1139 47.9722 45.2273 48.0814L48.2035 50.9565L47.5032 55.0175C47.4816 55.138 47.4871 55.2617 47.5193 55.3798C47.5514 55.498 47.6095 55.6077 47.6892 55.7011C47.769 55.7946 47.8686 55.8695 47.9809 55.9205C48.0932 55.9715 48.2155 55.9974 48.339 55.9964C48.4767 55.9981 48.6127 55.9654 48.7343 55.9013L52.4107 53.9827L56.0927 55.9013C56.2326 55.9746 56.3905 56.0077 56.5484 55.9967C56.7063 55.9857 56.8579 55.9311 56.9861 55.8391C57.1143 55.747 57.2138 55.6213 57.2735 55.4761C57.3332 55.3309 57.3506 55.172 57.3238 55.0175L56.6235 50.9565L59.5997 48.0814C59.7131 47.9722 59.7933 47.8337 59.8314 47.6817C59.8695 47.5296 59.8638 47.37 59.815 47.221C59.7662 47.072 59.6763 46.9395 59.5554 46.8384C59.4345 46.7374 59.2875 46.672 59.1309 46.6494H59.1196ZM55.1101 50.0615C55.0104 50.1558 54.9361 50.2732 54.8937 50.4031C54.8513 50.533 54.8422 50.6713 54.8672 50.8055L55.3529 53.6023L52.7947 52.271C52.6721 52.2094 52.5368 52.1768 52.3994 52.1759C52.2637 52.1762 52.13 52.2089 52.0097 52.271L49.4515 53.6023L49.9372 50.8055C49.9622 50.6713 49.9531 50.533 49.9107 50.4031C49.8683 50.2732 49.794 50.1558 49.6943 50.0615L47.6274 48.0646L50.485 47.6563C50.6204 47.6355 50.749 47.583 50.8599 47.5033C50.9709 47.4235 51.0611 47.3187 51.1231 47.1976L52.3994 44.6302L53.6813 47.1976C53.7433 47.3187 53.8335 47.4235 53.9445 47.5033C54.0554 47.583 54.184 47.6355 54.3195 47.6563L57.177 48.0646L55.1101 50.0615Z" fill="#0B0D21" stroke="#0B0D21" stroke-width="0.5"/>
    <path d="M26.1489 46.6494L22.0321 46.0397L20.1911 42.348C20.1211 42.2076 20.0129 42.0894 19.8787 42.0068C19.7444 41.9242 19.5895 41.8804 19.4315 41.8804C19.2735 41.8804 19.1186 41.9242 18.9844 42.0068C18.8501 42.0894 18.7419 42.2076 18.6719 42.348L16.8309 46.0397L12.7254 46.6494C12.5688 46.672 12.4218 46.7374 12.3009 46.8384C12.18 46.9395 12.0901 47.072 12.0413 47.221C11.9925 47.37 11.9868 47.5296 12.0249 47.6817C12.0629 47.8337 12.1432 47.9722 12.2566 48.0814L15.2328 50.9565L14.5325 55.0175C14.5109 55.138 14.5164 55.2617 14.5486 55.3798C14.5807 55.498 14.6388 55.6077 14.7185 55.7011C14.7983 55.7946 14.8979 55.8695 15.0102 55.9205C15.1225 55.9715 15.2447 55.9974 15.3683 55.9964C15.506 55.9981 15.642 55.9654 15.7636 55.9013L19.44 53.9827L23.122 55.9013C23.2619 55.9746 23.4198 56.0077 23.5777 55.9967C23.7356 55.9857 23.8872 55.9311 24.0154 55.8391C24.1435 55.747 24.2431 55.6213 24.3028 55.4761C24.3625 55.3309 24.3799 55.172 24.3531 55.0175L23.6528 50.9565L26.6289 48.0814C26.7424 47.9722 26.8226 47.8337 26.8607 47.6817C26.8988 47.5296 26.8931 47.37 26.8443 47.221C26.7955 47.072 26.7056 46.9395 26.5847 46.8384C26.4638 46.7374 26.3168 46.672 26.1602 46.6494H26.1489ZM22.1394 50.0615C22.0397 50.1558 21.9654 50.2732 21.923 50.4031C21.8806 50.533 21.8715 50.6713 21.8965 50.8055L22.3822 53.6023L19.824 52.271C19.7014 52.2094 19.5661 52.1768 19.4287 52.1759C19.293 52.1762 19.1593 52.2089 19.039 52.271L16.4808 53.6023L16.9665 50.8055C16.9915 50.6713 16.9824 50.533 16.94 50.4031C16.8976 50.2732 16.8233 50.1558 16.7236 50.0615L14.6567 48.0646L17.5143 47.6563C17.6497 47.6355 17.7783 47.583 17.8892 47.5033C18.0002 47.4235 18.0904 47.3187 18.1524 47.1976L19.4287 44.6302L20.7106 47.1976C20.7726 47.3187 20.8628 47.4235 20.9738 47.5033C21.0847 47.583 21.2133 47.6355 21.3487 47.6563L24.2063 48.0646L22.1394 50.0615Z" fill="#0B0D21" stroke="#0B0D21" stroke-width="0.5"/>
</svg>
