<svg width="115" height="32" viewBox="0 0 115 32" fill="none" xmlns="http://www.w3.org/2000/svg">
    <path d="M21.8223 0.26991V13.0793L26.3231 12.5622V0.26991H21.8223ZM21.8223 31.734H26.3231V19.4355L21.8223 18.9197V31.734ZM39.0105 10.1464C38.9622 9.62486 38.9402 9.10126 38.9444 8.57755C38.9436 8.06643 38.9884 7.55627 39.0782 7.05313C39.1537 6.60107 39.311 6.16663 39.5425 5.77121C39.7693 5.39571 40.0882 5.08447 40.4689 4.867C40.8663 4.63136 41.374 4.51354 41.9922 4.51354C43.1391 4.51354 43.9555 4.88933 44.4415 5.64092C44.9275 6.39251 45.1704 7.28384 45.1701 8.31492V9.3301H49.6685V7.12013C49.6693 6.23118 49.4891 5.35139 49.139 4.5345C48.7811 3.68613 48.2642 2.91431 47.6161 2.26082C46.935 1.56749 46.1266 1.01234 45.2354 0.62584C44.2687 0.203015 43.2226 -0.00721801 42.1679 0.009333C40.8743 0.00714097 39.741 0.234153 38.7679 0.690368C37.8385 1.11252 37.0164 1.73975 36.3634 2.52509C35.7057 3.33209 35.2171 4.26345 34.9267 5.26362C34.598 6.35173 34.4344 7.48311 34.4415 8.61988C34.4324 9.61983 34.536 10.6176 34.7502 11.5943L39.2556 11.0777C39.1217 10.7828 39.0385 10.4673 39.0093 10.1447L39.0105 10.1464ZM45.1676 22.8074C45.1676 23.514 45.1382 24.1618 45.0794 24.7506C45.0424 25.2674 44.8995 25.7711 44.6595 26.2302C44.439 26.6322 44.1001 26.9564 43.6891 27.1587C43.2614 27.3803 42.6655 27.4908 41.9015 27.4899C40.7546 27.4899 39.9383 27.1587 39.4526 26.4961C38.9731 25.8516 38.7172 25.0677 38.724 24.264V22.8522H34.2248V24.5303C34.2075 26.014 34.6417 27.4678 35.4694 28.6985C36.2972 29.9293 37.4795 30.8786 38.859 31.4204C39.8265 31.8107 40.8614 32.0062 41.9044 31.9958C43.3451 31.9958 44.566 31.7601 45.567 31.2889C46.5184 30.8626 47.3459 30.2013 47.972 29.367C48.574 28.5612 49.0075 27.5899 49.2724 26.4534C49.5459 25.2426 49.6791 24.0043 49.6693 22.763C49.6693 22.5394 49.6693 22.3216 49.6607 22.1119L45.1401 21.5937C45.1578 21.9558 45.1676 22.3577 45.1676 22.8074ZM57.5685 31.734H62.0702V23.5344L57.5685 23.0182V31.734ZM57.5685 0.26991V8.97951L62.0702 8.46453V0.26991H57.5685ZM75.9939 5.2854C76.1429 5.16207 76.3023 5.05205 76.4705 4.9566C76.9772 4.66648 77.5508 4.5139 78.1345 4.51395C78.9163 4.51406 79.6734 4.7875 80.2752 5.28705C80.5889 5.55802 80.8254 5.90727 80.9607 6.29935L85.487 5.78107C85.1745 4.29433 84.4009 2.94445 83.2766 1.9242C82.5656 1.29558 81.7416 0.808222 80.8486 0.488154C79.0972 -0.160114 77.1719 -0.160114 75.4205 0.488154C74.5275 0.808168 73.7035 1.29553 72.9925 1.9242C72.2441 2.59128 71.6493 3.4132 71.2492 4.3331C70.8322 5.25101 70.6133 6.30154 70.5925 7.48469L75.1418 6.96271C75.2512 6.23606 75.5353 5.67668 75.9939 5.28458V5.2854ZM80.2744 26.7177C80.1252 26.8415 79.9656 26.9522 79.7974 27.0485C79.4605 27.2412 79.0929 27.374 78.7109 27.441C78.3287 27.5079 77.9379 27.5079 77.5558 27.441C77.1737 27.374 76.8061 27.2412 76.4693 27.0485C76.3011 26.9523 76.1417 26.8416 75.9927 26.7177C75.5321 26.3245 75.248 25.7628 75.1401 25.0325L70.5908 24.5114C70.6124 25.7228 70.8314 26.7827 71.2476 27.6913C71.6522 28.6012 72.2465 29.414 72.9905 30.0752C73.701 30.7055 74.5254 31.1938 75.4193 31.5137C77.1707 32.1621 79.0959 32.1621 80.8474 31.5137C81.7406 31.194 82.5646 30.7066 83.2753 30.0776C84.0192 29.4164 84.6135 28.6036 85.0182 27.6938C85.2328 27.2232 85.3928 26.7295 85.4952 26.2224L80.9623 25.7025C80.8277 26.0967 80.5905 26.4478 80.2752 26.7197L80.2744 26.7177ZM105.365 31.734H109.602V28.9844L104.136 28.3572L105.365 31.734ZM93.8898 31.734H98.3919V27.6991L93.8898 27.1825V31.734ZM105.099 0.26991V3.53041L109.602 3.0146V0.26991H105.099ZM93.8898 0.26991V4.81645L99.6094 4.16007L98.2146 0.26991H93.8898Z" fill="#DBDFE1"/>
    <path d="M21.8223 13.0788V18.9192L26.3244 19.4359V12.5618L21.8223 13.0788ZM48.8077 17.3052C48.4659 16.6055 47.9773 15.988 47.3752 15.4947C46.7586 14.9793 45.9506 14.53 44.9509 14.1466L41.5103 12.7755C41.022 12.5927 40.5557 12.3557 40.12 12.069C39.8037 11.8587 39.5394 11.579 39.3471 11.2511C39.3163 11.196 39.2896 11.1381 39.2588 11.0797L34.7535 11.5955C34.9011 12.272 35.1308 12.9279 35.4373 13.5486C36.0993 14.8603 37.401 15.9135 39.3426 16.7084L42.5644 18.0335C43.0281 18.2225 43.4779 18.4438 43.9108 18.6956C44.2373 18.89 44.5097 19.1635 44.703 19.4909C44.8945 19.8151 45.0196 20.2422 45.0782 20.7724C45.1044 21.0137 45.1237 21.2891 45.1389 21.5912L49.6599 22.1119C49.6476 21.3029 49.5917 20.4952 49.4924 19.6923C49.3953 18.8658 49.1643 18.0606 48.8086 17.3085L48.8077 17.3052ZM57.5697 8.9799V23.0178L62.0714 23.534V8.46326L57.5697 8.9799ZM85.6824 7.69386C85.6858 7.05048 85.6207 6.40856 85.4882 5.77899L80.9619 6.2985C81.1166 6.74703 81.1906 7.21945 81.1807 7.69386V24.3096C81.1903 24.7822 81.1168 25.2528 80.9636 25.7L85.4964 26.222C85.6235 25.5935 85.6858 24.9536 85.6824 24.3124V7.69386ZM75.0901 24.3096V7.69304C75.0892 7.44914 75.1069 7.20553 75.143 6.96433L70.5937 7.48713V24.5109L75.143 25.0321C75.1078 24.7929 75.0904 24.5514 75.0909 24.3096H75.0901ZM105.101 3.53079V19.2275H105.012L99.6106 4.15963L93.8911 4.81518V27.1821L98.3932 27.6987V12.8199H98.4814L104.137 28.3575L109.603 28.9839V3.01416L105.101 3.53079Z" fill="#DBDFE1"/>
    <path d="M12.4838 2.18769C11.8317 1.52046 11.0607 0.981267 10.2106 0.597921C9.33186 0.19482 8.37516 -0.00922885 7.40867 0.000320346C6.52923 0.00342341 5.65401 0.122122 4.80544 0.353373C3.93447 0.582902 3.12314 0.997709 2.42673 1.56954C1.72126 2.14494 1.1403 2.90366 0.683853 3.84568C0.227404 4.7877 -0.000546317 5.98085 9.83174e-07 7.42512V24.5747C9.83174e-07 26.019 0.227952 27.2121 0.683853 28.1542C1.13975 29.0962 1.72071 29.8546 2.42673 30.4295C3.12334 31.002 3.93555 31.4166 4.80749 31.6448C5.65615 31.8764 6.53153 31.9952 7.41113 31.9983C8.37789 32.0082 9.3349 31.8043 10.2139 31.4011C11.0642 31.0177 11.8353 30.4783 12.4875 29.8109C13.1394 29.1429 13.6564 28.3553 14.0103 27.4912C14.3793 26.6093 14.5668 25.6619 14.5616 24.7058V21.8658L10.0156 21.091V22.4687C10.0156 23.3939 10.03 25.5015 9.50333 26.3322C9.37804 26.5336 9.22616 26.7172 9.0518 26.878C8.79639 27.0846 8.50378 27.2403 8.1898 27.3367C7.95835 27.4093 7.71993 27.4575 7.47845 27.4805C7.41154 27.4805 7.34381 27.4896 7.27116 27.4896H7.24037C6.21008 27.4896 5.49668 27.1801 5.10016 26.5611C4.70364 25.9421 4.50483 25.1766 4.50374 24.2644V7.73214C4.50374 6.81889 4.70254 6.05346 5.10016 5.43586C5.49777 4.81826 6.21118 4.50877 7.24037 4.5074H7.27116C7.34258 4.5074 7.41072 4.51274 7.47845 4.51685C7.71838 4.54057 7.95523 4.58891 8.18529 4.66112C8.49919 4.7578 8.79176 4.91363 9.04729 5.12021C9.22132 5.28097 9.37316 5.46425 9.49881 5.6652C10.0279 6.49749 10.0115 8.60512 10.0115 9.52865V10.9084L14.5616 10.1312V7.29072C14.5669 6.33498 14.3794 5.38801 14.0103 4.50658C13.6566 3.64242 13.1392 2.85498 12.4867 2.18769H12.4838ZM113.117 1.69941H113.443C113.554 1.70628 113.664 1.68433 113.764 1.63571C113.801 1.61524 113.831 1.58416 113.85 1.54649C113.869 1.50883 113.876 1.46632 113.871 1.42445C113.875 1.38783 113.868 1.35085 113.851 1.31807C113.834 1.28528 113.808 1.25812 113.776 1.23991C113.703 1.19717 113.619 1.1766 113.535 1.18073H113.117V1.69941ZM112.83 0.918505H113.528C113.948 0.918505 114.158 1.09099 114.157 1.43596C114.16 1.51159 114.147 1.58697 114.121 1.6579C114.099 1.71572 114.064 1.76793 114.02 1.8108C113.976 1.85139 113.925 1.8832 113.869 1.90451C113.812 1.92666 113.753 1.94197 113.693 1.95013L114.222 2.7557H113.874L113.345 1.96081H113.124V2.75734H112.836L112.83 0.918505ZM114.687 1.83792C114.688 1.66618 114.654 1.49605 114.586 1.33814C114.523 1.18524 114.432 1.04574 114.317 0.927136C114.203 0.809961 114.067 0.716147 113.918 0.650941C113.763 0.583181 113.595 0.548204 113.426 0.548204C113.257 0.548204 113.09 0.583181 112.935 0.650941C112.785 0.716138 112.649 0.80995 112.535 0.927136C112.42 1.04591 112.328 1.18535 112.265 1.33814C112.199 1.49667 112.165 1.66675 112.165 1.83854C112.165 2.01033 112.199 2.18041 112.265 2.33894C112.328 2.49168 112.42 2.63111 112.535 2.74994C112.649 2.86713 112.785 2.96094 112.935 3.02614C113.09 3.0939 113.257 3.12888 113.426 3.12888C113.595 3.12888 113.763 3.0939 113.918 3.02614C114.067 2.96093 114.203 2.86712 114.317 2.74994C114.432 2.63119 114.523 2.49173 114.586 2.33894C114.654 2.18059 114.688 2.01006 114.687 1.83792ZM111.85 1.84655C111.848 1.63469 111.89 1.42467 111.974 1.23005C112.064 1.01545 112.2 0.823532 112.374 0.668085C112.547 0.512637 112.752 0.397516 112.975 0.33099C113.198 0.264464 113.433 0.248184 113.663 0.283319C113.893 0.318454 114.112 0.404132 114.305 0.534199C114.498 0.664267 114.659 0.835496 114.778 1.03559C114.897 1.23568 114.971 1.45967 114.993 1.69146C115.015 1.92326 114.986 2.15711 114.907 2.37622C114.828 2.59534 114.702 2.79427 114.537 2.95873C114.355 3.14017 114.13 3.27405 113.884 3.34866C113.638 3.42328 113.377 3.43637 113.124 3.38678C112.872 3.33719 112.635 3.22644 112.435 3.0642C112.236 2.90196 112.078 2.69317 111.978 2.45607C111.894 2.26146 111.852 2.05143 111.855 1.83957" fill="#DBDFE1"/>
</svg>
